<?xml version="1.0" encoding="utf-8"?>
<!-- Generator: Adobe Illustrator 23.0.3, SVG Export Plug-In . SVG Version: 6.00 Build 0)  -->
<svg version="1.1" id="Layer_1" xmlns="http://www.w3.org/2000/svg" x="0px"
     y="0px"
     viewBox="0 0 1474 1474" style="enable-background:new 0 0 1474 1474;" xml:space="preserve">
<style type="text/css">
	.st0{fill:#ffffff;}
</style>
    <g>
	<g>
		<g>
			<path class="st0" d="M698.3,747.6c-2.3-14.1-13.7-25.5-27.8-27.8c-23.2-3.9-43.2,16.1-39.3,39.3c2.3,14.1,13.7,25.4,27.8,27.8
				C682.2,790.7,702.1,770.8,698.3,747.6z"/>
		</g>
	</g>
        <g>
		<path class="st0" d="M664.7,307.4c-244.9,0-443.5,198.5-443.5,443.5s198.6,443.5,443.5,443.5c245,0,443.5-198.6,443.5-443.5
			S909.6,307.4,664.7,307.4z M662.8,1067.6c-78.4-0.4-152.2-29.3-209.9-81.7l-45,45c-6,6.1-15.9,6.1-22,0c-6.1-6.1-6.1-15.9,0-22
			l222.6-222.7c-6.7-11.4-10-25.1-8.6-39.6c3-30.4,27.7-55,58.2-58.1c41.1-4.1,75.5,30.3,71.4,71.4c-3,30.4-27.6,55-58.1,58.1
			c-15.2,1.5-29.4-2.2-41.1-9.5L587,851.8c23.4,18.6,52.6,28.2,83.1,26.9c63.2-2.7,115.3-53.2,119.8-116.3
			c5.2-73.3-53-134.5-125.1-134.5c-69.2,0-125.5,56.3-125.5,125.5c0,3.7,0.2,7.3,0.5,11c0.7,7.9-4.6,15.2-12.4,16.7
			c-1,0.2-2.1,0.3-3.1,0.3c-7.8,0-14.7-5.9-15.4-14c-0.4-4.7-0.7-9.3-0.7-14c0-86.3,70.2-156.5,156.5-156.5
			c90.3,0,163,76.9,156,168.7c-6,78.9-71.4,141.6-150.5,144.3c-38.9,1.3-76-11.4-105.4-35.9l-90.1,90c65.1,58.5,152.9,84,242.6,67.9
			c113.3-20.3,203.4-108.7,225.9-221.5c36.3-182.2-102.8-342.6-278.6-342.6c-156.9,0-284.5,127.6-284.5,284.4
			c0,11.2,0.7,22.4,1.9,33.5c0.9,8.3-4.6,15.8-12.8,17.3c-0.9,0.1-1.8,0.2-2.7,0.2c-7.7,0-14.5-5.7-15.4-13.6
			c-1.5-12.4-2.2-24.9-2.2-37.4c0-174,141.5-315.5,315.5-315.5c177.8,0,321.7,147.8,315.3,327
			C973.9,933.3,832.5,1068.7,662.8,1067.6z"/>
	</g>
        <path class="st0" d="M627.4,1237.3l64.7,144.4c143.1-101.8,270.7-246.1,270.7-246.1S785,1239.1,627.4,1237.3z"/>
        <path class="st0" d="M1125.4,541.5l90.7-129.6c-160.8-70.5-350.2-105.8-350.2-105.8S1046,405.5,1125.4,541.5z"/>
        <path class="st0" d="M257.9,458.1l-157.4-15.8c17,174.8,78.7,357.3,78.7,357.3S178,593.9,257.9,458.1z"/>
        <g>
		<path class="st0" d="M273.2,391.1c0,0-11.1-123.3-9.7-136.6c-9.7-18.6-31.1-64.4-70-65c-38.9-0.6-90.8,60.5-88.8,195.4
			C131.7,386.4,273.2,391.1,273.2,391.1z"/>
            <path class="st0"
                  d="M425.1,310c129.9-60,206.5-83.8,375.3-80C772.2,171.2,647.8-12,554.5,15.2C466.7,40.8,434,172.3,425.1,310z"
            />
            <path class="st0" d="M562.6,1263.3c0,0-101,71.5-113.2,77c-11.2,17.8-40.1,59.3-21,93.1s97.9,48.1,213.6-21.4
			C629.7,1388.1,562.6,1263.3,562.6,1263.3z"/>
            <path class="st0" d="M420.5,1186.4c-117.1-82.2-176.3-136.4-257.7-284.3c-36.7,54.1-132.6,253.7-62.2,320.6
			C166.8,1285.8,297,1247.9,420.5,1186.4z"/>
            <path class="st0" d="M1178.3,591.1c0,0,112.2,52.2,123,60.1c21,0.9,71.3,5.4,91.3-27.9c20-33.3-6.8-108.9-124.5-174.9
			C1253.4,471,1178.3,591.1,1178.3,591.1z"/>
            <path class="st0" d="M1185,750.9c-13.3,142.5-31.1,220.7-119.2,364.8c65.1,5,286-10.6,309.3-105
			C1397,921.9,1299.6,827.7,1185,750.9z"/>
	</g>
</g>
</svg>
